# xmcd
#
# Track frame offsets:
#	150
#	19366
#	34907
#	48387
#	62631
#	82263
#	95809
#	111757
#	133142
#	150652
#	166773
#	186526
#	202672
#
# Disc length: 2936
#
# Revision: 5
# Processed by: cddbd v1.5.1PL0 Copyright (c) Steve Scherf et al.
# Submitted via: EasyCDDAExtractor 5.1.0
# Normalized: r4:DSETVAR1
#
DISCID=b50b760d
DTITLE=Various Artist - Tribute Album (Keith Whitley)
DYEAR=1994
DGENRE=Country
TTITLE0=Alan Jackson - Don't Close Your Eyes
TTITLE1=Diamond Rio - Ten Feet Away
TTITLE2=Keith Whitley - I'm Gonna Hurt Her On The Radio
TTITLE3=Tracy Lawrence - I'm Over You
TTITLE4=Alison Krauss - When You Say Nothing At All
TTITLE5=Keith Whitley - Charlotte's In North Carolina
TTITLE6=Keith Whitley and Lorrie Morgan - I Just Want You
TTITLE7=Daron Norwood - Little Boy Lost
TTITLE8=Ricky Skaggs - All I Ever Loved Was You
TTITLE9=Joe Diffie - I'm No Stranger To The Rain
TTITLE10=Mark Chesnutt - I Never Go Aroung Mirrors
TTITLE11=Keith Whitley - The Comeback Kid
TTITLE12=Various Artist - A Voice Still Rings True
EXTD=
EXTT0=
EXTT1=
EXTT2=
EXTT3=
EXTT4=
EXTT5=
EXTT6=
EXTT7=
EXTT8=
EXTT9=
EXTT10=
EXTT11=
EXTT12=
PLAYORDER=
